<svg xmlns="http://www.w3.org/2000/svg" width="192" height="148" viewBox="0 0 192 148"><defs><mask id="dy5cb" width="2.03" height="2.04" x="-1.01" y="-1.02"><path fill="#fff" d="M13.9 16.9h163.2v116.2H13.9z"/><path d="M20.969 19H170.03A4.963 4.963 0 0 1 175 23.958v92.175a4.963 4.963 0 0 1-4.969 4.956L20.97 130.999a4.962 4.962 0 0 1-4.97-4.956V23.957a4.963 4.963 0 0 1 4.97-4.956z"/></mask><filter id="dy5ca" width="211" height="170" x="-10" y="-7" filterUnits="userSpaceOnUse"><feOffset dy="6" in="SourceGraphic" result="FeOffset1023Out"/><feGaussianBlur in="FeOffset1023Out" result="FeGaussianBlur1024Out" stdDeviation="5.5600000000000005 5.5600000000000005"/></filter><mask id="dy5cd" width="2.02" height="2.04" x="-1.01" y="-1.02"><path fill="#fff" d="M8.9 2.9h174.2v124.2H8.9z"/><path d="M16.312 5.001h159.375a5.31 5.31 0 0 1 5.313 5.31v98.76a5.31 5.31 0 0 1-5.313 5.308l-159.375 10.62A5.311 5.311 0 0 1 11 119.69V10.31a5.31 5.31 0 0 1 5.312-5.309z"/></mask><filter id="dy5cc" width="222" height="178" x="-15" y="-21" filterUnits="userSpaceOnUse"><feOffset dy="6" in="SourceGraphic" result="FeOffset1039Out"/><feGaussianBlur in="FeOffset1039Out" result="FeGaussianBlur1040Out" stdDeviation="5.5600000000000005 5.5600000000000005"/></filter><clipPath id="dy5ce"><path fill="#fff" d="M16 119V5h160v114zM21.937 6.001C19.211 6.001 17 8.219 17 10.956v102.087c0 2.737 2.21 4.956 4.937 4.956l148.125-9.912c2.727 0 4.938-2.219 4.938-4.955V10.956c0-2.736-2.21-4.955-4.938-4.955H21.937z"/></clipPath></defs><g><g><g filter="url(#dy5ca)"><path fill="none" stroke="#000" stroke-opacity=".05" stroke-width="4.2" d="M20.969 19H170.03A4.963 4.963 0 0 1 175 23.958v92.175a4.963 4.963 0 0 1-4.969 4.956L20.97 130.999a4.962 4.962 0 0 1-4.97-4.956V23.957a4.963 4.963 0 0 1 4.97-4.956z" mask="url(&quot;#dy5cb&quot;)"/><path fill-opacity=".05" d="M20.969 19H170.03A4.963 4.963 0 0 1 175 23.958v92.175a4.963 4.963 0 0 1-4.969 4.956L20.97 130.999a4.962 4.962 0 0 1-4.97-4.956V23.957a4.963 4.963 0 0 1 4.97-4.956z"/></g><path fill="#fff" d="M20.969 19H170.03A4.963 4.963 0 0 1 175 23.958v92.175a4.963 4.963 0 0 1-4.969 4.956L20.97 130.999a4.962 4.962 0 0 1-4.97-4.956V23.957a4.963 4.963 0 0 1 4.97-4.956z"/></g><g><g filter="url(#dy5cc)"><path fill="none" stroke="#000" stroke-opacity=".05" stroke-width="4.2" d="M16.312 5.001h159.375a5.31 5.31 0 0 1 5.313 5.31v98.76a5.31 5.31 0 0 1-5.313 5.308l-159.375 10.62A5.311 5.311 0 0 1 11 119.69V10.31a5.31 5.31 0 0 1 5.312-5.309z" mask="url(&quot;#dy5cd&quot;)"/><path fill-opacity=".05" d="M16.312 5.001h159.375a5.31 5.31 0 0 1 5.313 5.31v98.76a5.31 5.31 0 0 1-5.313 5.308l-159.375 10.62A5.311 5.311 0 0 1 11 119.69V10.31a5.31 5.31 0 0 1 5.312-5.309z"/></g><path fill="#fff" d="M16.312 5.001h159.375a5.31 5.31 0 0 1 5.313 5.31v98.76a5.31 5.31 0 0 1-5.313 5.308l-159.375 10.62A5.311 5.311 0 0 1 11 119.69V10.31a5.31 5.31 0 0 1 5.312-5.309z"/></g><g><path fill="#fff" d="M21.937 6.001h148.125c2.727 0 4.938 2.218 4.938 4.955v92.176c0 2.736-2.21 4.955-4.938 4.955L21.937 118C19.211 118 17 115.78 17 113.043V10.956c0-2.737 2.21-4.955 4.937-4.955z"/><path fill="none" stroke="#fff4e2" stroke-linecap="round" stroke-linejoin="round" stroke-miterlimit="20" stroke-width="2" d="M21.937 6.001h148.125c2.727 0 4.938 2.218 4.938 4.955v92.176c0 2.736-2.21 4.955-4.938 4.955L21.937 118C19.211 118 17 115.78 17 113.043V10.956c0-2.737 2.21-4.955 4.937-4.955z" clip-path="url(&quot;#dy5ce&quot;)"/></g></g></svg>